<svg xmlns="http://www.w3.org/2000/svg" viewBox="0 0 64 64"><title>Pocket Pilot</title><defs><linearGradient id="bg" x1="0" y1="0" x2="1" y2="1"><stop offset="0" stop-color="#2e2a78"/><stop offset="1" stop-color="#111a3a"/></linearGradient>
<radialGradient id="glow" cx=".5" cy=".45" r=".6"><stop offset="0" stop-color="#6366f1" stop-opacity=".6"/><stop offset="1" stop-color="#6366f1" stop-opacity="0"/></radialGradient>
<linearGradient id="metal" x1="0" y1="0" x2="0" y2="1"><stop offset="0" stop-color="#f8fafc"/><stop offset="1" stop-color="#c3cfdf"/></linearGradient>
<linearGradient id="visor" x1="0" y1="0" x2="1" y2="1"><stop offset="0" stop-color="#22d3ee"/><stop offset=".55" stop-color="#6366f1"/><stop offset="1" stop-color="#a855f7"/></linearGradient></defs>
<rect width="64" height="64" rx="15" fill="url(#bg)"/><rect width="64" height="64" rx="15" fill="url(#glow)"/>
<g transform="translate(-11.9 -3.6) scale(.173)">
<path d="M318 126L344 86" stroke="#c3cfdf" stroke-width="12" stroke-linecap="round"/>
<circle cx="348" cy="78" r="17" fill="#f472b6"/>
<path d="M128 296C128 172 184 110 256 110S384 172 384 296C384 340 352 372 308 372H204C160 372 128 340 128 296Z" fill="url(#metal)"/>
<circle cx="134" cy="286" r="13" fill="#94a3b8"/>
<circle cx="378" cy="286" r="13" fill="#94a3b8"/>
<rect x="150" y="198" width="212" height="102" rx="51" fill="url(#visor)"/>
<path d="M178 222Q226 206 278 212" stroke="#fff" stroke-opacity=".55" stroke-width="12" stroke-linecap="round" fill="none"/>
<circle cx="220" cy="254" r="16" fill="#fff"/>
<circle cx="292" cy="254" r="16" fill="#fff"/>
</g></svg>
